<?xml version="1.0" standalone="no"?>
<!DOCTYPE svg PUBLIC "-//W3C//DTD SVG 20010904//EN"
 "http://www.w3.org/TR/2001/REC-SVG-20010904/DTD/svg10.dtd">
<svg version="1.0" xmlns="http://www.w3.org/2000/svg"
 width="256.000000pt" height="256.000000pt" viewBox="0 0 256.000000 256.000000"
 preserveAspectRatio="xMidYMid meet">
<metadata>
Created by potrace 1.14, written by Peter Selinger 2001-2017
</metadata>
<g transform="translate(0.000000,256.000000) scale(0.100000,-0.100000)"
fill="#000000" stroke="none">
<path d="M10 2170 c-18 -43 -7 -137 22 -202 14 -29 48 -79 77 -110 97 -105
112 -123 136 -163 25 -41 29 -58 40 -160 40 -373 230 -649 531 -775 42 -17 82
-29 89 -27 6 3 18 33 26 66 9 44 18 61 29 61 27 0 29 -8 13 -58 -8 -26 -16
-54 -18 -62 -13 -59 -41 -159 -67 -237 -37 -113 -34 -143 16 -143 37 0 85 15
161 51 168 79 326 252 399 439 36 91 31 84 49 73 14 -7 13 -15 -4 -63 -10 -30
-28 -72 -39 -94 -11 -22 -18 -42 -15 -44 8 -9 144 42 224 84 316 166 575 422
795 784 90 148 103 195 66 235 -39 42 -84 34 -217 -36 l-115 -62 -30 37 c-17
21 -55 49 -87 63 -75 35 -208 37 -290 4 -45 -18 -118 -62 -156 -93 -5 -5 -55
-41 -110 -81 -255 -186 -425 -258 -607 -258 -127 -1 -218 29 -277 90 -87 90
-88 211 -5 390 59 124 81 241 55 289 -23 44 -103 18 -222 -73 l-63 -48 -115
58 c-127 64 -210 95 -251 95 -21 0 -30 -7 -40 -30z"/>
<path d="M1840 839 c-47 -32 -89 -58 -95 -59 -5 0 -20 -8 -33 -18 -22 -17 -22
-17 84 -77 58 -33 115 -66 127 -73 12 -7 33 -11 47 -10 24 3 25 5 23 70 -1 48
-11 89 -33 145 -17 43 -32 78 -33 79 -1 1 -40 -25 -87 -57z"/>
</g>
</svg>
